
<svg class="svg-robot" width="120" height="140" viewBox="0 0 120 140" fill="none" xmlns="http://www.w3.org/2000/svg">
  <filter id="shadow" filterUnits="userSpaceOnUse" color-interpolation-filters="sRGB">
    <feDropShadow dx="0" dy="7" stdDeviation="6" flood-color="#a3a3a340"/>
  </filter>
  <ellipse cx="60" cy="100" rx="30" ry="35" fill="#eee" stroke="#d8d8d8" stroke-width="4" filter="url(#shadow)"/>
  <ellipse cx="60" cy="43" rx="38" ry="37" fill="white" stroke="#bdbdbd" stroke-width="4"/>
  <ellipse cx="60" cy="46" rx="22" ry="16" fill="#3d4ba2" stroke="#223070" stroke-width="4"/>
  <ellipse cx="51" cy="40" rx="6" ry="4" fill="#8dcefa"/>
  <ellipse cx="68" cy="50" rx="4.3" ry="2.2" fill="#dfffff" opacity="0.8"/>
  <ellipse cx="54" cy="46" rx="4" ry="5.5" fill="#fff"/>
  <ellipse cx="66" cy="46" rx="4" ry="5.5" fill="#fff"/>
  <circle cx="20" cy="50" r="9" fill="#d7dadd" stroke="#9ea1a5" stroke-width="2"/>
  <circle cx="100" cy="50" r="9" fill="#d7dadd" stroke="#9ea1a5" stroke-width="2"/>
  <rect x="51" y="74" width="18" height="21" rx="8" fill="#979fa7"/>
  <rect x="10" y="78" width="13" height="30" rx="8" transform="rotate(-23 18 80)" fill="#dbe1e6"/>
  <rect x="97" y="78" width="13" height="30" rx="8" transform="rotate(23 105 80)" fill="#dbe1e6"/>
  <ellipse cx="17" cy="109" rx="7" ry="6" fill="#b7b9be"/>
  <ellipse cx="103" cy="109" rx="7" ry="6" fill="#b7b9be"/>
  <rect x="47" y="123" width="7" height="15" rx="3.5" fill="#b7b9be"/>
  <rect x="66" y="123" width="7" height="15" rx="3.5" fill="#b7b9be"/>
  <ellipse cx="50.5" cy="136" rx="8" ry="4" fill="#616b76"/>
  <ellipse cx="69.5" cy="136" rx="8" ry="4" fill="#616b76"/>
</svg>
